<svg xmlns="http://www.w3.org/2000/svg" viewBox="0 0 48 48" id="folder-small" aria-hidden="true" role="none" data-supported-dps="48x48" width="48" height="48">
  <path fill="#788fa5" d="M8 43h32v2H8z"/>
  <path d="M38.17 2c-.71 0-1.4.21-2 .59L28 7H3a3.285 3.285 0 00-3 3.31V43h48V4.91A2.798 2.798 0 0045.31 2h-7.14z" fill="#f8c77e"/>
  <path d="M45.3 8h-7.2c-.71 0-1.41.22-2 .61L28 13H3a3.285 3.285 0 00-3 3.31V43h48V11a2.872 2.872 0 00-2.7-3z" fill="#fde2bc"/>
  <path d="M38 47c-.45.02-.86-.26-1-.69l-4.58-14A.45.45 0 0032 32H15.53c-.21 0-.4.14-.46.35L11 46.28c-.15.55-.73.87-1.28.72-.55-.15-.87-.73-.72-1.28l4.11-13.94A2.47 2.47 0 0115.53 30H32c1.06 0 2 .67 2.34 1.67l4.59 14c.21.51-.04 1.1-.55 1.3-.02 0-.05.02-.07.03-.1.01-.21.01-.31 0z" fill="#c0d1e2"/>
</svg>
